<svg xmlns="http://www.w3.org/2000/svg" width="336" height="88" viewBox="0 0 336 88" fill="none"><path d="M122.52 23.0703C122.594 24.2447 122.401 25.4205 121.956 26.5098C121.511 27.5991 120.825 28.5737 119.95 29.3604C118.23 30.8204 115.8 31.54 112.63 31.54H110.31V40.6104H104.91V15.1201H113.05C116.137 15.1201 118.487 15.7868 120.1 17.1201C120.939 17.8655 121.595 18.795 122.014 19.8359C122.434 20.8769 122.607 22.0011 122.52 23.1201M110.31 27.1201H112.09C113.411 27.217 114.725 26.8646 115.82 26.1201C116.239 25.7737 116.569 25.3328 116.785 24.834C117.001 24.3351 117.095 23.7923 117.06 23.25C117.109 22.7385 117.045 22.2222 116.872 21.7383C116.699 21.2544 116.422 20.8149 116.06 20.4502C115.122 19.7651 113.968 19.4418 112.81 19.54H110.35L110.31 27.1201Z" fill="white"></path><path d="M136.5 20.75C137.101 20.7368 137.701 20.7907 138.29 20.9101L137.89 25.9101C137.376 25.7887 136.848 25.7316 136.32 25.7402C134.868 25.6454 133.435 26.1142 132.32 27.0498C131.834 27.5218 131.456 28.0939 131.211 28.7256C130.966 29.3572 130.86 30.0336 130.9 30.7099V40.6299H125.58V21.1396H129.58L130.36 24.4199H130.62C131.203 23.3464 132.046 22.4362 133.07 21.7705C134.069 21.1166 135.237 20.7691 136.43 20.7705" fill="white"></path><path d="M159.12 30.8699C159.281 33.5834 158.377 36.253 156.6 38.3104C155.692 39.2309 154.598 39.9461 153.39 40.41C152.183 40.8739 150.891 41.0752 149.6 40.9998C147.87 41.0353 146.162 40.6114 144.65 39.7703C143.222 38.9527 142.075 37.7218 141.36 36.2401C140.562 34.5647 140.168 32.7253 140.21 30.8699C140.21 27.6799 141.04 25.2102 142.7 23.4402C143.615 22.5316 144.712 21.8256 145.918 21.369C147.124 20.9124 148.413 20.7151 149.7 20.7899C151.428 20.756 153.135 21.1764 154.65 22.0096C156.077 22.8194 157.224 24.0441 157.94 25.5203C158.745 27.1867 159.142 29.0199 159.1 30.8699M145.62 30.8699C145.524 32.3866 145.853 33.9001 146.57 35.2401C146.906 35.7408 147.37 36.1432 147.913 36.4051C148.456 36.667 149.059 36.7792 149.66 36.7303C150.256 36.7811 150.855 36.6704 151.393 36.41C151.932 36.1495 152.39 35.7486 152.72 35.2498C153.429 33.9037 153.755 32.3885 153.66 30.8699C153.76 29.3626 153.43 27.858 152.71 26.5301C152.335 26.0789 151.865 25.7158 151.333 25.4666C150.802 25.2174 150.222 25.0877 149.635 25.0877C149.048 25.0877 148.468 25.2174 147.937 25.4666C147.406 25.7158 146.935 26.0789 146.56 26.5301C145.842 27.862 145.516 29.37 145.62 30.8797" fill="white"></path><path d="M180.47 21.1198V23.82L177.42 24.61C177.98 25.4798 178.272 26.4953 178.26 27.53C178.307 28.4601 178.134 29.3879 177.753 30.238C177.372 31.088 176.795 31.8357 176.07 32.4196C174.305 33.6863 172.158 34.3074 169.99 34.1794L168.99 34.1198L168.21 34.0397C167.971 34.188 167.771 34.3924 167.629 34.6345C167.486 34.8765 167.404 35.1487 167.39 35.4294C167.39 36.1994 168.39 36.5798 170.32 36.5798H173.63C175.37 36.4602 177.098 36.9478 178.52 37.9597C179.086 38.4541 179.532 39.072 179.823 39.7653C180.114 40.4586 180.243 41.2089 180.2 41.9597C180.233 43.0158 179.988 44.0622 179.487 44.9929C178.987 45.9235 178.249 46.7052 177.35 47.2595C175.45 48.5195 172.73 49.1501 169.17 49.1501C167 49.282 164.838 48.7893 162.94 47.7302C162.258 47.3136 161.7 46.7238 161.32 46.0212C160.941 45.3186 160.754 44.5283 160.78 43.7302C160.749 42.6443 161.144 41.589 161.88 40.7897C162.764 39.9153 163.888 39.3233 165.11 39.0895C164.539 38.8447 164.045 38.4513 163.68 37.9499C163.291 37.4754 163.076 36.8832 163.07 36.2702C163.046 35.5925 163.274 34.9297 163.71 34.4098C164.25 33.8282 164.882 33.3382 165.58 32.9597C164.563 32.5269 163.712 31.7807 163.15 30.8298C162.533 29.7865 162.221 28.5911 162.25 27.3796C162.196 26.4544 162.355 25.5299 162.714 24.6755C163.072 23.821 163.622 23.0595 164.32 22.4499C166.028 21.1846 168.128 20.5646 170.25 20.6999C170.899 20.7075 171.547 20.758 172.19 20.8503C172.94 20.9503 173.42 21.02 173.63 21.07L180.47 21.1198ZM165.47 43.36C165.467 43.7173 165.564 44.0683 165.75 44.3737C165.935 44.6792 166.202 44.9266 166.52 45.0895C167.445 45.5652 168.481 45.7828 169.52 45.7194C171.053 45.7909 172.583 45.521 174 44.9294C174.453 44.7758 174.85 44.4906 175.138 44.1091C175.427 43.7275 175.595 43.2676 175.62 42.7897C175.639 42.4624 175.552 42.1379 175.372 41.8639C175.192 41.59 174.928 41.3818 174.62 41.2702C173.656 40.9362 172.637 40.7937 171.62 40.8503H168.86C167.991 40.8193 167.134 41.06 166.41 41.5397C166.101 41.7318 165.847 42.0003 165.671 42.319C165.496 42.6378 165.406 42.9964 165.41 43.36M167.34 27.4997C167.292 28.3933 167.546 29.2769 168.06 30.0095C168.329 30.3267 168.67 30.5761 169.054 30.736C169.438 30.896 169.855 30.9618 170.27 30.9294C170.683 30.9652 171.1 30.9001 171.483 30.7399C171.866 30.5797 172.204 30.3291 172.47 30.0095C172.965 29.2696 173.208 28.389 173.16 27.4997C173.16 25.153 172.196 23.9802 170.27 23.9802C168.343 23.9802 167.366 25.153 167.34 27.4997Z" fill="white"></path><path d="M194.56 20.75C195.16 20.7368 195.761 20.7907 196.35 20.9101L195.95 25.9101C195.435 25.7887 194.908 25.7316 194.38 25.7402C192.927 25.6433 191.493 26.1124 190.38 27.0498C189.894 27.5218 189.515 28.0939 189.27 28.7256C189.025 29.3572 188.919 30.0336 188.96 30.7099V40.6299H183.64V21.1396H187.64L188.42 24.4199H188.68C189.263 23.3464 190.105 22.4362 191.13 21.7705C192.128 21.1166 193.296 20.7691 194.49 20.7705" fill="white"></path><path d="M211.41 40.6105L210.41 37.9601H210.27C209.549 38.9488 208.603 39.7509 207.51 40.3C206.334 40.7832 205.069 41.0084 203.8 40.9601C202.992 41.0034 202.185 40.8833 201.425 40.6066C200.666 40.33 199.97 39.903 199.38 39.3508C198.818 38.7383 198.386 38.0181 198.109 37.2346C197.833 36.451 197.717 35.6196 197.77 34.7902C197.705 33.9044 197.871 33.0167 198.251 32.2141C198.631 31.4114 199.213 30.721 199.94 30.2101C201.933 29.0798 204.198 28.5163 206.49 28.5803L209.87 28.4699V27.6203C209.87 25.6203 208.87 24.6203 206.87 24.6203C204.962 24.7057 203.092 25.1859 201.38 26.0305L199.61 22.4406C201.917 21.2489 204.483 20.6437 207.08 20.6799C209.217 20.5403 211.337 21.1445 213.08 22.3898C213.805 23.0345 214.372 23.8389 214.734 24.7394C215.097 25.64 215.246 26.6125 215.17 27.5803V40.5803L211.41 40.6105ZM209.84 31.6105L207.78 31.6799C206.575 31.6349 205.382 31.9221 204.33 32.51C203.957 32.7708 203.657 33.1237 203.459 33.5334C203.262 33.9431 203.172 34.3967 203.2 34.8508C203.2 36.3508 204.06 37.1008 205.78 37.1008C206.325 37.1352 206.872 37.0583 207.388 36.8762C207.903 36.694 208.377 36.4098 208.78 36.0402C209.152 35.6725 209.444 35.2309 209.635 34.7434C209.826 34.2558 209.913 33.7333 209.89 33.2101L209.84 31.6105Z" fill="white"></path><path d="M236.76 40.6101H231.44V29.2194C231.512 28.1197 231.265 27.0234 230.73 26.0603C230.483 25.7076 230.148 25.425 229.759 25.2409C229.37 25.0568 228.939 24.9767 228.51 25.0095C227.92 24.9586 227.328 25.0719 226.798 25.3366C226.269 25.6013 225.823 26.0072 225.51 26.5095C224.775 28.0434 224.454 29.7438 224.58 31.4401V40.6101H219.3V21.1198H223.37L224.08 23.6101H224.38C224.916 22.7077 225.701 21.9781 226.64 21.5095C227.696 20.987 228.862 20.7265 230.04 20.7497C232.96 20.7497 234.936 21.7034 235.97 23.6101H236.44C236.978 22.6891 237.784 21.953 238.75 21.4997C239.827 20.9873 241.007 20.7306 242.2 20.7497C243.104 20.687 244.012 20.8055 244.871 21.0974C245.729 21.3892 246.521 21.8488 247.2 22.4499C248.33 23.5899 248.9 25.4501 248.9 27.9001V40.6101H243.56V29.2194C243.634 28.1208 243.391 27.0246 242.86 26.0603C242.61 25.7075 242.274 25.4249 241.883 25.2409C241.492 25.0569 241.061 24.9769 240.63 25.0095C240.065 24.973 239.5 25.0816 238.989 25.3249C238.478 25.5682 238.038 25.9387 237.71 26.4001C236.956 27.7492 236.608 29.2875 236.71 30.8298L236.76 40.6101Z" fill="white"></path><path d="M265.88 40.6105L264.88 37.9601H264.74C264.019 38.9488 263.073 39.7509 261.98 40.3C260.804 40.7832 259.539 41.0084 258.27 40.9601C257.462 41.0034 256.655 40.8833 255.895 40.6066C255.136 40.33 254.44 39.903 253.85 39.3508C253.288 38.7383 252.856 38.0181 252.579 37.2346C252.303 36.451 252.187 35.6196 252.24 34.7902C252.177 33.9046 252.343 33.0183 252.723 32.216C253.104 31.4137 253.684 30.7224 254.41 30.2101C256.403 29.0798 258.668 28.5163 260.96 28.5803L264.34 28.4699V27.6203C264.34 25.6203 263.34 24.6203 261.34 24.6203C259.432 24.7057 257.562 25.1859 255.85 26.0305L254.09 22.4406C256.393 21.249 258.956 20.6437 261.55 20.6799C263.687 20.5403 265.807 21.1445 267.55 22.3898C268.275 23.0345 268.842 23.8389 269.204 24.7394C269.567 25.64 269.716 26.6125 269.64 27.5803V40.5803L265.88 40.6105ZM264.31 31.6105L262.25 31.6799C261.045 31.6349 259.852 31.9221 258.8 32.51C258.427 32.7708 258.127 33.1237 257.929 33.5334C257.732 33.9431 257.642 34.3967 257.67 34.8508C257.67 36.3508 258.53 37.1008 260.25 37.1008C260.795 37.1352 261.342 37.0583 261.858 36.8762C262.373 36.694 262.847 36.4098 263.25 36.0402C263.622 35.6725 263.914 35.2309 264.105 34.7434C264.296 34.2558 264.383 33.7333 264.36 33.2101L264.31 31.6105Z" fill="white"></path><path d="M291.77 40.6108H286.45V29.2202C286.527 28.1152 286.265 27.0139 285.7 26.061C285.421 25.701 285.056 25.4163 284.638 25.2329C284.221 25.0496 283.765 24.9727 283.31 25.0103C282.69 24.9554 282.066 25.0642 281.501 25.3257C280.936 25.5871 280.45 25.9923 280.09 26.5005C279.42 27.5005 279.09 29.1409 279.09 31.4409V40.6108H273.78V21.1206H277.84L278.55 23.6108H278.85C279.438 22.6741 280.291 21.933 281.3 21.481C282.415 20.9765 283.627 20.7267 284.85 20.7505C285.791 20.6838 286.735 20.8127 287.623 21.1294C288.511 21.4461 289.324 21.9436 290.01 22.5903C291.268 24.0624 291.9 25.9689 291.77 27.9009V40.6108Z" fill="white"></path><path d="M302.55 40.96C301.501 40.9987 300.458 40.7748 299.517 40.3086C298.575 39.8423 297.765 39.1485 297.16 38.29C295.721 36.1039 295.02 33.5142 295.16 30.9004C295.16 27.7004 295.827 25.2097 297.16 23.4297C297.785 22.5646 298.615 21.8679 299.574 21.4004C300.534 20.9329 301.594 20.7092 302.66 20.75C303.763 20.6998 304.86 20.9371 305.843 21.4385C306.827 21.9399 307.663 22.6884 308.27 23.6104H308.45C308.199 22.3286 308.065 21.0259 308.05 19.7197V13.4805H313.38V40.6104H309.3L308.3 38.0801H308.08C307.504 39.0139 306.685 39.7743 305.712 40.2812C304.738 40.7882 303.646 41.0228 302.55 40.96ZM304.42 36.7197C304.978 36.769 305.539 36.6882 306.059 36.4834C306.58 36.2786 307.046 35.9557 307.42 35.54C308.154 34.34 308.503 32.9442 308.42 31.54V30.96C308.534 29.3977 308.186 27.8362 307.42 26.4697C307.05 25.9988 306.568 25.6281 306.018 25.3906C305.468 25.1531 304.867 25.057 304.27 25.1104C303.719 25.0929 303.172 25.2227 302.687 25.4863C302.202 25.7499 301.796 26.1379 301.51 26.6104C300.764 27.9478 300.416 29.4711 300.51 31C300.405 32.5043 300.753 34.0062 301.51 35.3105C301.82 35.7748 302.244 36.151 302.741 36.4033C303.239 36.6556 303.793 36.7748 304.35 36.75" fill="white"></path><path d="M335.83 30.8699C335.989 33.5815 335.089 36.2493 333.32 38.3104C332.41 39.2288 331.316 39.9433 330.109 40.407C328.902 40.8708 327.611 41.0726 326.32 40.9998C324.573 41.0443 322.847 40.62 321.32 39.7703C319.892 38.9527 318.745 37.7218 318.03 36.2401C317.232 34.5647 316.838 32.7253 316.88 30.8699C316.88 27.6799 317.71 25.2102 319.37 23.4402C320.285 22.5316 321.382 21.8256 322.588 21.369C323.794 20.9124 325.083 20.7151 326.37 20.7899C328.115 20.7472 329.841 21.1679 331.37 22.0096C332.797 22.8194 333.944 24.0441 334.66 25.5203C335.465 27.1867 335.862 29.0199 335.82 30.8699M322.34 30.8699C322.244 32.3866 322.573 33.9001 323.29 35.2401C323.626 35.7408 324.089 36.1432 324.633 36.4051C325.176 36.667 325.779 36.7792 326.38 36.7303C326.976 36.7811 327.575 36.6704 328.113 36.41C328.651 36.1495 329.11 35.7486 329.44 35.2498C330.154 33.9055 330.48 32.3889 330.38 30.8699C330.479 29.3626 330.15 27.858 329.43 26.5301C329.055 26.0789 328.585 25.7158 328.053 25.4666C327.522 25.2174 326.942 25.0877 326.355 25.0877C325.768 25.0877 325.188 25.2174 324.657 25.4666C324.125 25.7158 323.655 26.0789 323.28 26.5301C322.562 27.862 322.236 29.37 322.34 30.8797" fill="white"></path><path d="M122.52 55.21C122.594 56.3844 122.401 57.5601 121.956 58.6494C121.511 59.7387 120.825 60.7133 119.95 61.5C118.23 62.95 115.8 63.6797 112.63 63.6797H110.31V72.75H104.91V47.2598H113.05C116.137 47.2598 118.487 47.9264 120.1 49.2598C120.938 50.0066 121.591 50.937 122.011 51.9775C122.431 53.0181 122.605 54.1409 122.52 55.2598M110.31 59.2598H112.09C113.41 59.3512 114.723 58.9992 115.82 58.2598C116.238 57.9128 116.568 57.4724 116.784 56.9736C116.999 56.4749 117.094 55.9319 117.06 55.3896C117.109 54.8766 117.045 54.3596 116.872 53.874C116.7 53.3885 116.422 52.9467 116.06 52.5801C115.119 51.9026 113.966 51.5831 112.81 51.6797H110.35L110.31 59.2598Z" fill="white"></path><path d="M138.43 72.7496L137.43 70.1001H137.29C136.565 71.0842 135.62 71.8853 134.53 72.44C133.354 72.9186 132.089 73.1396 130.82 73.0894C130.014 73.134 129.206 73.0157 128.447 72.7408C127.687 72.4658 126.991 72.0403 126.4 71.4898C125.838 70.8758 125.405 70.154 125.129 69.3687C124.852 68.5834 124.737 67.7504 124.79 66.9195C124.725 66.035 124.891 65.1493 125.271 64.3482C125.652 63.5471 126.234 62.8587 126.96 62.3501C128.413 61.3568 130.597 60.8126 133.51 60.7193L136.89 60.6099V59.7593C136.89 57.7593 135.89 56.7593 133.89 56.7593C131.979 56.8496 130.106 57.3329 128.39 58.1792L126.63 54.5894C128.911 53.4275 131.44 52.8375 134 52.8697C136.137 52.7326 138.256 53.3365 140 54.5796C140.724 55.2278 141.29 56.0343 141.652 56.9361C142.014 57.8378 142.164 58.8108 142.09 59.7798V72.7798L138.43 72.7496ZM136.86 63.7496L134.8 63.8199C133.596 63.7749 132.402 64.0621 131.35 64.65C130.975 64.908 130.673 65.2591 130.475 65.6695C130.276 66.0799 130.189 66.5352 130.22 66.9898C130.22 68.4898 131.08 69.2398 132.8 69.2398C133.338 69.265 133.876 69.1832 134.382 68.9996C134.888 68.8159 135.353 68.5337 135.75 68.1695C136.122 67.8033 136.413 67.3633 136.604 66.8775C136.796 66.3917 136.883 65.8717 136.86 65.3501V63.7496Z" fill="white"></path><path d="M156.77 52.87C157.374 52.8574 157.978 52.9112 158.57 53.0301L158.17 58.0301C157.656 57.9092 157.129 57.8522 156.6 57.8602C155.148 57.7612 153.713 58.2305 152.6 59.1698C152.114 59.6418 151.736 60.2129 151.491 60.8446C151.246 61.4762 151.14 62.1536 151.18 62.8299V72.7498H145.86V53.2596H149.86L150.64 56.5301H151C151.584 55.4595 152.426 54.5514 153.45 53.8895C154.443 53.231 155.609 52.8829 156.8 52.8895" fill="white"></path><path d="M173.62 72.7502L172.62 70.1008H172.49C171.761 71.0852 170.812 71.8862 169.72 72.4406C168.547 72.9193 167.286 73.1403 166.02 73.09C165.213 73.1346 164.406 73.0163 163.647 72.7414C162.887 72.4665 162.191 72.0409 161.6 71.4904C161.034 70.8785 160.598 70.1579 160.32 69.3723C160.041 68.5866 159.926 67.7519 159.98 66.9201C159.917 66.0349 160.085 65.1489 160.467 64.3478C160.849 63.5468 161.432 62.8589 162.16 62.3508C163.6 61.3574 165.78 60.8132 168.7 60.7199L172.08 60.6105V59.76C172.08 57.76 171.08 56.76 169.08 56.76C167.171 56.8493 165.302 57.3327 163.59 58.1799L161.83 54.59C164.133 53.3953 166.695 52.7878 169.29 52.8205C171.427 52.681 173.547 53.2851 175.29 54.5305C176.017 55.1767 176.585 55.9819 176.949 56.884C177.314 57.786 177.464 58.7607 177.39 59.7307V72.7307L173.62 72.7502ZM172.05 63.7502L170.05 63.8205C168.842 63.7742 167.645 64.0614 166.59 64.6506C166.216 64.9101 165.915 65.262 165.717 65.6721C165.519 66.0821 165.43 66.536 165.46 66.9904C165.46 68.4904 166.32 69.2404 168.04 69.2404C168.586 69.2712 169.133 69.1927 169.648 69.009C170.163 68.8252 170.636 68.5396 171.04 68.1701C171.409 67.8019 171.697 67.3616 171.886 66.8762C172.076 66.3907 172.162 65.8714 172.14 65.3508L172.05 63.7502Z" fill="white"></path><path d="M199.77 53.2597V55.9599L196.77 56.7401C197.33 57.6137 197.622 58.632 197.61 59.6698C197.655 60.5997 197.48 61.5272 197.099 62.3768C196.719 63.2265 196.143 63.975 195.42 64.5604C193.657 65.8228 191.514 66.4407 189.35 66.3104L188.35 66.2597L187.56 66.1698C187.323 66.3227 187.125 66.5292 186.983 66.7724C186.84 67.0155 186.757 67.2889 186.74 67.5702C186.74 68.3402 187.74 68.7196 189.67 68.7196H193C194.743 68.6018 196.474 69.0901 197.9 70.1005C198.468 70.5935 198.915 71.2105 199.206 71.9042C199.498 72.5979 199.625 73.3495 199.58 74.1005C199.613 75.1566 199.368 76.202 198.867 77.1327C198.367 78.0634 197.629 78.8461 196.73 79.4003C194.83 80.6603 192.1 81.2802 188.54 81.2802C186.369 81.4166 184.206 80.9236 182.31 79.8602C181.627 79.4456 181.068 78.8555 180.69 78.1522C180.312 77.449 180.129 76.6581 180.16 75.8602C180.126 74.7727 180.517 73.7146 181.25 72.91C182.136 72.0407 183.26 71.4523 184.48 71.2196C183.911 70.9722 183.417 70.5793 183.05 70.08C182.645 69.5786 182.425 68.9545 182.425 68.3104C182.425 67.6664 182.645 67.0413 183.05 66.5399C183.592 65.9606 184.223 65.4709 184.92 65.0897C183.909 64.6477 183.06 63.9038 182.49 62.9599C181.873 61.9166 181.561 60.7212 181.59 59.5097C181.536 58.582 181.695 57.6551 182.056 56.7987C182.416 55.9424 182.968 55.1799 183.67 54.5702C185.376 53.3107 187.473 52.6943 189.59 52.83C190.242 52.8375 190.893 52.888 191.54 52.9804C192.29 53.0804 192.77 53.1501 192.97 53.2001L199.77 53.2597ZM184.77 75.4999C184.764 75.8518 184.854 76.199 185.03 76.5038C185.206 76.8086 185.462 77.0599 185.77 77.2304C186.698 77.6962 187.733 77.9101 188.77 77.8505C190.302 77.9199 191.831 77.6534 193.25 77.0702C193.703 76.9167 194.1 76.6305 194.388 76.2489C194.677 75.8674 194.845 75.4075 194.87 74.9296C194.889 74.6023 194.802 74.2777 194.622 74.0038C194.442 73.7299 194.178 73.5216 193.87 73.41C192.906 73.0761 191.887 72.9335 190.87 72.9901H188.11C187.241 72.9605 186.385 73.2011 185.66 73.6796C185.352 73.8731 185.099 74.1424 184.924 74.4608C184.749 74.7792 184.658 75.1366 184.66 75.4999M186.59 59.6395C186.54 60.5349 186.798 61.4211 187.32 62.1503C187.607 62.4417 187.95 62.673 188.327 62.8309C188.705 62.9889 189.11 63.0702 189.52 63.0702C189.929 63.0702 190.334 62.9889 190.712 62.8309C191.09 62.673 191.432 62.4417 191.72 62.1503C192.218 61.4111 192.463 60.5298 192.42 59.6395C192.42 57.2862 191.453 56.1102 189.52 56.1102C187.586 56.1102 186.61 57.2862 186.59 59.6395Z" fill="white"></path><path d="M216.79 72.75L216.071 70.25H215.801C215.215 71.1738 214.369 71.9049 213.371 72.3506C212.252 72.8665 211.032 73.1228 209.801 73.1006C208.857 73.1695 207.909 73.0414 207.017 72.7246C206.126 72.4079 205.309 71.9086 204.621 71.2598C203.373 69.7867 202.749 67.8857 202.881 65.96V53.2598H208.191V64.6396C208.113 65.7448 208.375 66.8474 208.941 67.7998C209.218 68.163 209.582 68.4505 210 68.6357C210.417 68.821 210.875 68.8986 211.331 68.8604C211.952 68.912 212.576 68.8021 213.142 68.541C213.708 68.2799 214.197 67.8762 214.561 67.3701C215.343 65.8472 215.689 64.1371 215.561 62.4297V53.2598H220.881V72.75H216.79Z" fill="white"></path><path d="M238.39 72.7496L237.39 70.1001H237.25C236.521 71.0846 235.573 71.8856 234.48 72.44C233.308 72.9195 232.046 73.1406 230.78 73.0894C229.974 73.134 229.166 73.0157 228.407 72.7408C227.647 72.4658 226.951 72.0403 226.36 71.4898C225.796 70.8771 225.362 70.1563 225.085 69.3707C224.808 68.585 224.694 67.7506 224.75 66.9195C224.685 66.035 224.851 65.1493 225.231 64.3482C225.612 63.5471 226.194 62.8587 226.92 62.3501C228.36 61.3501 230.55 60.8193 233.46 60.7193L236.85 60.6099V59.7593C236.85 57.7593 235.85 56.7593 233.85 56.7593C231.942 56.8487 230.072 57.3321 228.36 58.1792L226.6 54.5894C228.89 53.4216 231.43 52.8314 234 52.8697C236.137 52.7326 238.256 53.3365 240 54.5796C240.724 55.2278 241.29 56.0343 241.652 56.9361C242.014 57.8378 242.164 58.8108 242.09 59.7798V72.7798L238.39 72.7496ZM236.83 63.7496L234.77 63.8199C233.565 63.7717 232.371 64.0592 231.32 64.65C230.943 64.9068 230.639 65.2581 230.439 65.6685C230.239 66.079 230.15 66.5342 230.18 66.9898C230.18 68.4898 231.04 69.2398 232.76 69.2398C233.306 69.2712 233.853 69.1921 234.369 69.0083C234.884 68.8246 235.357 68.5394 235.76 68.1695C236.132 67.8033 236.423 67.3633 236.614 66.8775C236.806 66.3917 236.893 65.8717 236.87 65.3501L236.83 63.7496Z" fill="white"></path><path d="M244.36 53.2598H250.19L253.86 64.2598C254.206 65.3578 254.424 66.4918 254.51 67.6396H254.61C254.731 66.4882 254.983 65.3544 255.36 64.2598L258.97 53.2598H264.67L256.43 75.2598C255.83 77.0719 254.702 78.6636 253.19 79.8301C251.759 80.8495 250.037 81.379 248.28 81.3398C247.373 81.3384 246.468 81.2412 245.58 81.0498V76.8301C246.266 76.9832 246.968 77.0567 247.67 77.0498C248.57 77.0697 249.447 76.765 250.14 76.1904C250.922 75.4943 251.493 74.5932 251.79 73.5898L252.1 72.5898L244.36 53.2598Z" fill="white"></path><path d="M21.6003 44.0498C15.9507 44.1714 10.5736 46.5016 6.62103 50.54C2.6685 54.5785 0.455078 60.0044 0.455078 65.6553C0.455078 71.3061 2.6685 76.732 6.62103 80.7705C10.5736 84.809 15.9507 87.1382 21.6003 87.2598H43.2003V44.0498H21.6003Z" fill="white"></path><path d="M64.8102 0.870117H43.2002V44.0801H64.8102C70.4597 43.9585 75.8369 41.6293 79.7894 37.5908C83.7419 33.5523 85.9554 28.1264 85.9554 22.4756C85.9554 16.8248 83.7419 11.3979 79.7894 7.35938C75.8369 3.32089 70.4597 0.991668 64.8102 0.870117Z" fill="white"></path></svg>